<svg xmlns="http://www.w3.org/2000/svg" viewBox="0 0 248 248"><title>Asset 3</title><g id="Layer_2" data-name="Layer 2"><g id="Layer_1-2" data-name="Layer 1"><path d="M124,0A124,124,0,1,0,248,124,124,124,0,0,0,124,0Zm46.12,151.34a12.69,12.69,0,0,1,0,17.95l-.81.81a12.7,12.7,0,0,1-17.95,0l-27.57-27.58L96.21,170.1a12.7,12.7,0,0,1-17.95,0l-.81-.81a12.7,12.7,0,0,1,0-17.95L105,123.76,77.45,96.19a12.7,12.7,0,0,1,0-18l.81-.81a12.69,12.69,0,0,1,17.95,0L123.79,105l27.57-27.58a12.69,12.69,0,0,1,17.95,0l.81.81a12.69,12.69,0,0,1,0,18l-27.58,27.57Z"/></g></g></svg>